<svg width="30" height="31" viewBox="0 0 30 31" fill="none" xmlns="http://www.w3.org/2000/svg">
<g clip-path="url(#clip0_2_3639)">
<path fill-rule="evenodd" clip-rule="evenodd" d="M14.7893 30.2974C23.0144 30.2974 29.6822 23.6297 29.6822 15.4046C29.6822 7.17948 23.0144 0.511719 14.7893 0.511719C6.56424 0.511719 -0.103516 7.17948 -0.103516 15.4046C-0.103516 23.6297 6.56424 30.2974 14.7893 30.2974ZM7.50774 7.13086H22.0696C23.0708 7.13086 23.8899 7.96858 23.8899 8.99247V20.1621C23.8899 21.186 23.0708 22.0237 22.0696 22.0237H7.50774C6.50661 22.0237 5.6875 21.186 5.6875 20.1621L5.6966 8.99247C5.6966 7.96858 6.50661 7.13086 7.50774 7.13086ZM15.2711 15.2009L21.7056 11.0868C21.7969 11.0344 21.8768 10.9636 21.9405 10.8787C22.0042 10.7938 22.0505 10.6966 22.0764 10.5929C22.1023 10.4892 22.1074 10.3812 22.0913 10.2754C22.0753 10.1696 22.0384 10.0683 21.9829 9.97754C21.9275 9.88677 21.8546 9.80846 21.7686 9.74734C21.6827 9.68623 21.5856 9.64357 21.4831 9.62197C21.3806 9.60036 21.2749 9.60025 21.1723 9.62164C21.0698 9.64303 20.9725 9.68548 20.8865 9.74642L14.7887 13.6465L8.69089 9.74642C8.60485 9.68548 8.50762 9.64303 8.40507 9.62164C8.30253 9.60025 8.19681 9.60036 8.09431 9.62197C7.9918 9.64357 7.89466 9.68623 7.80874 9.74734C7.72282 9.80846 7.64992 9.88677 7.59446 9.97754C7.53899 10.0683 7.5021 10.1696 7.48604 10.2754C7.46997 10.3812 7.47505 10.4892 7.50098 10.5929C7.52691 10.6966 7.57314 10.7938 7.63687 10.8787C7.70061 10.9636 7.78053 11.0344 7.87179 11.0868L14.3063 15.2009C14.5976 15.3871 14.9798 15.3871 15.2711 15.2009Z" fill="white"/>
</g>
<defs>
<clipPath id="clip0_2_3639">
<rect width="29.7857" height="29.7857" fill="white" transform="translate(0 0.566895)"/>
</clipPath>
</defs>
</svg>
