<svg width="30" height="30" viewBox="0 0 30 30" fill="none" xmlns="http://www.w3.org/2000/svg">
<g clip-path="url(#clip0_2_3635)">
<path fill-rule="evenodd" clip-rule="evenodd" d="M0 14.9164C0 22.3207 5.37756 28.4776 12.4107 29.7261V18.9698H8.6875V14.8333H12.4107V11.5233C12.4107 7.80014 14.8097 5.73251 18.2028 5.73251C19.2776 5.73251 20.4367 5.89757 21.5115 6.06264V9.869H19.6089C17.7883 9.869 17.375 10.7787 17.375 11.9379V14.8333H21.3464L20.6849 18.9698H17.375V29.7261C24.4082 28.4776 29.7857 22.3219 29.7857 14.9164C29.7857 6.67945 23.0839 -0.0595703 14.8929 -0.0595703C6.70179 -0.0595703 0 6.67945 0 14.9164Z" fill="white"/>
</g>
<defs>
<clipPath id="clip0_2_3635">
<rect width="29.7857" height="29.7857" fill="white" transform="translate(0 -0.00439453)"/>
</clipPath>
</defs>
</svg>
