<svg width="30" height="31" viewBox="0 0 30 31" fill="none" xmlns="http://www.w3.org/2000/svg">
<g clip-path="url(#clip0_2_3643)">
<path fill-rule="evenodd" clip-rule="evenodd" d="M14.7386 30.0831C22.9637 30.0831 29.6314 23.4153 29.6314 15.1902C29.6314 6.96512 22.9637 0.297363 14.7386 0.297363C6.51346 0.297363 -0.154297 6.96512 -0.154297 15.1902C-0.154297 23.4153 6.51346 30.0831 14.7386 30.0831ZM11.1439 15.0457C11.1439 13.1479 12.6927 11.5992 14.5905 11.5992C16.4883 11.5992 18.0371 13.1479 18.0371 15.0457C18.0371 16.9435 16.4883 18.4923 14.5905 18.4923C12.6927 18.4923 11.1439 16.9435 11.1439 15.0457ZM24.928 14.5236C24.9278 14.6975 24.9276 14.8715 24.9276 15.0457C24.9276 15.2405 24.9279 15.4351 24.9282 15.6295C24.93 16.8592 24.9318 18.0817 24.8604 19.3119C24.7802 20.9667 24.4053 22.4327 23.1927 23.6453C21.9826 24.8554 20.514 25.2329 18.8593 25.313C17.6085 25.3834 16.3657 25.382 15.1152 25.3806C14.9413 25.3804 14.7673 25.3802 14.5931 25.3802C14.4192 25.3802 14.2455 25.3804 14.072 25.3806C12.8231 25.382 11.58 25.3834 10.3269 25.313C8.67214 25.2329 7.20613 24.8579 5.9935 23.6453C4.78345 22.4353 4.40596 20.9667 4.32581 19.3119C4.25543 18.0611 4.25681 16.8162 4.2582 15.5669C4.25839 15.3933 4.25858 15.2195 4.25858 15.0457C4.25858 14.8719 4.25839 14.6982 4.2582 14.5246C4.25681 13.2757 4.25543 12.0326 4.32581 10.7795C4.40596 9.12478 4.78087 7.65876 5.9935 6.44613C7.20354 5.23609 8.67214 4.8586 10.3269 4.77844C11.5777 4.70807 12.8204 4.70945 14.071 4.71083C14.2449 4.71103 14.4189 4.71122 14.5931 4.71122C14.7669 4.71122 14.9406 4.71103 15.1142 4.71083C16.3631 4.70945 17.6062 4.70807 18.8593 4.77844C20.514 4.8586 21.98 5.2335 23.1927 6.44613C24.4027 7.65618 24.7802 9.12478 24.8604 10.7795C24.9307 12.0303 24.9294 13.2731 24.928 14.5236ZM9.28751 15.0457C9.28751 17.9803 11.6559 20.3487 14.5905 20.3487C17.5251 20.3487 19.8935 17.9803 19.8935 15.0457C19.8935 12.1111 17.5251 9.74273 14.5905 9.74273C11.6559 9.74273 9.28751 12.1111 9.28751 15.0457ZM18.8722 9.52554C18.8722 10.2107 19.4255 10.764 20.1107 10.764C20.2734 10.7642 20.4345 10.7323 20.5849 10.6702C20.7352 10.608 20.8718 10.5168 20.9869 10.4017C21.1019 10.2867 21.1931 10.1501 21.2553 9.99973C21.3175 9.84938 21.3494 9.68824 21.3492 9.52554C21.3492 8.84037 20.7959 8.28706 20.1107 8.28706C19.4255 8.28706 18.8722 8.84037 18.8722 9.52554Z" fill="white"/>
</g>
<defs>
<clipPath id="clip0_2_3643">
<rect width="29.7857" height="29.7857" fill="white" transform="translate(0 0.352539)"/>
</clipPath>
</defs>
</svg>
